# Blender 4.2.2 LTS
# www.blender.org
mtllib TiltedWallPiece2.mtl
o Cube
v 2.380000 2.330000 -0.200000
v 2.380000 -2.330000 -0.200000
v 2.380000 2.330000 0.200000
v 2.380000 -2.330000 0.200000
v -2.380000 2.330000 -0.200000
v -2.380000 -2.330000 -0.200000
v -2.380000 2.330000 0.200000
v -2.380000 -2.330000 0.200000
vn -0.0000 1.0000 -0.0000
vn -0.0000 -0.0000 1.0000
vn -1.0000 -0.0000 -0.0000
vn -0.0000 -1.0000 -0.0000
vn 1.0000 -0.0000 -0.0000
vn -0.0000 -0.0000 -1.0000
vt 0.625000 0.500000
vt 0.875000 0.500000
vt 0.875000 0.750000
vt 0.625000 0.750000
vt 0.375000 0.750000
vt 0.625000 1.000000
vt 0.375000 1.000000
vt 0.375000 0.000000
vt 0.625000 0.000000
vt 0.625000 0.250000
vt 0.375000 0.250000
vt 0.125000 0.500000
vt 0.375000 0.500000
vt 0.125000 0.750000
s 1
usemtl Material
f 1/1/1 5/2/1 7/3/1 3/4/1
f 4/5/2 3/4/2 7/6/2 8/7/2
f 8/8/3 7/9/3 5/10/3 6/11/3
f 6/12/4 2/13/4 4/5/4 8/14/4
f 2/13/5 1/1/5 3/4/5 4/5/5
f 6/11/6 5/10/6 1/1/6 2/13/6
o Cube.001
v 1.980000 -2.330000 -0.200000
v 1.980000 2.330000 -0.200000
v 2.380000 -2.330000 2.060000
v 2.380000 2.330000 2.060000
v 2.380000 -2.330000 -0.200000
v 2.380000 2.330000 -0.200000
v 1.980000 2.330000 1.990444
v 1.980000 -2.330000 1.990444
v 2.356758 2.330000 2.060000
v 2.356758 -2.330000 2.060000
vn -1.0000 -0.0000 -0.0000
vn -0.0000 -0.0000 -1.0000
vn 1.0000 -0.0000 -0.0000
vn -0.0000 -0.0000 1.0000
vn -0.0000 -1.0000 -0.0000
vn -0.0000 1.0000 -0.0000
vn -0.1815 -0.0000 0.9834
vt 0.625000 0.250000
vt 0.375000 0.250000
vt 0.375000 0.007694
vt 0.625000 0.007694
vt 0.625000 0.500000
vt 0.375000 0.500000
vt 0.625000 0.750000
vt 0.375000 0.750000
vt 0.375000 0.764526
vt 0.625000 0.764526
vt 0.125000 0.500000
vt 0.360474 0.750000
vt 0.125000 0.742306
vt 0.639526 0.750000
vt 0.875000 0.500000
vt 0.875000 0.742306
vt 0.625000 0.477385
vt 0.375000 0.477385
vt 0.375000 0.497598
vt 0.625000 0.497598
s 0
f 10/15/7 9/16/7 16/17/7 15/18/7
f 9/16/8 10/15/8 14/19/8 13/20/8
f 13/20/9 14/19/9 12/21/9 11/22/9
f 18/23/10 11/22/10 12/21/10 17/24/10
f 9/25/11 13/20/11 11/22/11 18/26/11 16/27/11
f 17/28/12 12/21/12 14/19/12 10/29/12 15/30/12
s 1
f 15/31/13 16/32/13 18/33/13 17/34/13
o Cube.002
v -2.380000 -2.330000 1.200000
v -2.380000 2.330000 1.200000
v -2.380000 -2.330000 -0.200000
v -2.380000 2.330000 -0.200000
v -1.980000 -2.330000 1.200000
v -1.980000 2.330000 1.200000
v -1.980000 -2.330000 -0.200000
v -1.980000 2.330000 -0.200000
vn -1.0000 -0.0000 -0.0000
vn -0.0000 -0.0000 -1.0000
vn 1.0000 -0.0000 -0.0000
vn -0.0000 -0.0000 1.0000
vn -0.0000 -1.0000 -0.0000
vn -0.0000 1.0000 -0.0000
vt 0.375000 0.000000
vt 0.625000 0.000000
vt 0.625000 0.250000
vt 0.375000 0.250000
vt 0.625000 0.500000
vt 0.375000 0.500000
vt 0.625000 0.750000
vt 0.375000 0.750000
vt 0.625000 1.000000
vt 0.375000 1.000000
vt 0.125000 0.500000
vt 0.125000 0.750000
vt 0.875000 0.500000
vt 0.875000 0.750000
s 0
f 19/35/14 20/36/14 22/37/14 21/38/14
f 21/38/15 22/37/15 26/39/15 25/40/15
f 25/40/16 26/39/16 24/41/16 23/42/16
f 23/42/17 24/41/17 20/43/17 19/44/17
f 21/45/18 25/40/18 23/42/18 19/46/18
f 26/39/19 22/47/19 20/48/19 24/41/19
o Cube.003
v 2.330000 -2.330000 2.060000
v 2.330000 2.330000 2.060000
v 2.377250 2.330000 2.070541
v 2.377250 -2.330000 2.070541
v -2.306748 2.330000 0.799035
v -2.306748 -2.330000 0.799035
v -2.379368 2.330000 1.192388
v -2.379368 -2.330000 1.192388
v 2.379196 2.330000 2.060000
v 2.379196 -2.330000 2.060000
v 2.330000 2.330000 1.655058
v 2.330000 -2.330000 1.655058
vn -0.0000 1.0000 -0.0000
vn -0.1815 -0.0000 0.9834
vn -0.9834 -0.0000 -0.1815
vn -0.0000 -1.0000 -0.0000
vn 0.9834 -0.0000 0.1815
vn 0.1815 -0.0000 -0.9834
vn 1.0000 -0.0000 -0.0000
vn -0.0000 -0.0000 -1.0000
vt 0.631300 0.500000
vt 0.875000 0.500000
vt 0.875000 0.750000
vt 0.625000 0.750000
vt 0.625000 0.743301
vt 0.627500 0.748883
vt 0.375000 0.750000
vt 0.625000 1.000000
vt 0.375000 1.000000
vt 0.375000 0.000000
vt 0.625000 0.000000
vt 0.625000 0.250000
vt 0.375000 0.250000
vt 0.375000 0.743301
vt 0.125000 0.750000
vt 0.125000 0.500000
vt 0.368700 0.500000
vt 0.372500 0.748883
vt 0.625000 0.493700
vt 0.375000 0.493700
vt 0.375000 0.044794
vt 0.625000 0.044794
vt 0.625000 0.969252
vt 0.375000 0.969252
s 1
usemtl Material.001
f 37/49/20 31/50/20 33/51/20 29/52/20 35/53/20 28/54/20
f 30/55/21 29/52/21 33/56/21 34/57/21
f 34/58/22 33/59/22 31/60/22 32/61/22
f 36/62/23 30/55/23 34/63/23 32/64/23 38/65/23 27/66/23
f 29/52/24 30/55/24 36/62/24 35/53/24
f 32/61/25 31/60/25 37/67/25 38/68/25
f 38/69/26 37/70/26 28/59/26 27/58/26
f 27/57/27 28/56/27 35/71/27 36/72/27
o Cube.005
v 2.330000 2.330000 -0.129428
v 2.330000 -2.330000 -0.129428
v 2.330000 2.330000 1.152176
v 2.330000 -2.330000 1.152176
v -2.330000 2.330000 -0.129428
v -2.330000 -2.330000 -0.129428
v -2.330000 2.330000 1.152176
v -2.330000 -2.330000 1.152176
vn -0.0000 1.0000 -0.0000
vn -0.0000 -0.0000 1.0000
vn -1.0000 -0.0000 -0.0000
vn -0.0000 -1.0000 -0.0000
vn 1.0000 -0.0000 -0.0000
vn -0.0000 -0.0000 -1.0000
vt 0.625000 0.500000
vt 0.875000 0.500000
vt 0.875000 0.750000
vt 0.625000 0.750000
vt 0.375000 0.750000
vt 0.625000 1.000000
vt 0.375000 1.000000
vt 0.375000 0.000000
vt 0.625000 0.000000
vt 0.625000 0.250000
vt 0.375000 0.250000
vt 0.125000 0.500000
vt 0.375000 0.500000
vt 0.125000 0.750000
s 1
usemtl Material.003
f 39/73/28 43/74/28 45/75/28 41/76/28
f 42/77/29 41/76/29 45/78/29 46/79/29
f 46/80/30 45/81/30 43/82/30 44/83/30
f 44/84/31 40/85/31 42/77/31 46/86/31
f 40/85/32 39/73/32 41/76/32 42/77/32
f 44/83/33 43/82/33 39/73/33 40/85/33
o Cube.007
v 2.364146 2.330000 0.720437
v 2.364146 -2.330000 0.720437
v 2.080194 2.330000 1.970188
v 2.080194 -2.330000 1.970188
v -1.104336 2.330000 -0.067625
v -1.104336 -2.330000 -0.067625
v -1.388288 2.330000 1.182126
v -1.388288 -2.330000 1.182126
vn -0.0000 1.0000 -0.0000
vn -0.2216 -0.0000 0.9751
vn -0.9751 -0.0000 -0.2216
vn -0.0000 -1.0000 -0.0000
vn 0.9751 -0.0000 0.2216
vn 0.2216 -0.0000 -0.9751
vt 0.625000 0.500000
vt 0.875000 0.500000
vt 0.875000 0.750000
vt 0.625000 0.750000
vt 0.375000 0.750000
vt 0.625000 1.000000
vt 0.375000 1.000000
vt 0.375000 0.000000
vt 0.625000 0.000000
vt 0.625000 0.250000
vt 0.375000 0.250000
vt 0.125000 0.500000
vt 0.375000 0.500000
vt 0.125000 0.750000
s 1
usemtl Material.004
f 47/87/34 51/88/34 53/89/34 49/90/34
f 50/91/35 49/90/35 53/92/35 54/93/35
f 54/94/36 53/95/36 51/96/36 52/97/36
f 52/98/37 48/99/37 50/91/37 54/100/37
f 48/99/38 47/87/38 49/90/38 50/91/38
f 52/97/39 51/96/39 47/87/39 48/99/39
